<?xml version="1.0" encoding="UTF-8"?>
<svg width="56px" height="80px" viewBox="0 0 56 80" version="1.1" xmlns="http://www.w3.org/2000/svg" xmlns:xlink="http://www.w3.org/1999/xlink">
    <defs></defs>
    <g id="Page-1" stroke="none" stroke-width="1" fill="none" fill-rule="evenodd">
        <path d="M28,0.02124 C12.5181,0.02124 0,13.06874 0,29.02124 C0,34.77324 1.6908,39.25142 4.4062,43.64622 L26.3125,79.05242 C26.679651,79.6293815 27.3161254,79.9787748 28,79.9787748 C28.6838746,79.9787748 29.320349,79.6293815 29.6875,79.05242 L51.5938,43.64622 C54.3093,39.25132 56,34.77324 56,29.02124 C56,13.06874 43.4819,0.02124 28,0.02124 Z M28,4.02124 C41.2369,4.02124 52,15.15034 52,29.02124 C52,34.01784 50.6726,37.53064 48.1875,41.55242 L28,74.24002 L7.8125,41.55242 C5.3274,37.53074 4,34.01784 4,29.02124 C4,15.15034 14.7631,4.02124 28,4.02124 Z M28,14.02124 C20.2917,14.02124 14,20.31294 14,28.02124 C14,35.72944 20.2917,42.02122 28,42.02122 C35.7083,42.02122 42,35.72944 42,28.02124 C42,20.31294 35.7083,14.02124 28,14.02124 Z M28,18.02124 C33.5465,18.02124 38,22.47474 38,28.02124 C38,33.56764 33.5465,38.02122 28,38.02122 C22.4535,38.02122 18,33.56764 18,28.02124 C18,22.47474 22.4535,18.02124 28,18.02124 Z" id="Shape" fill="#000000" fill-rule="nonzero"></path>
    </g>
</svg>
