<?xml version="1.0" encoding="UTF-8"?>
<svg width="62px" height="69px" viewBox="0 0 62 69" version="1.1" xmlns="http://www.w3.org/2000/svg" xmlns:xlink="http://www.w3.org/1999/xlink">
    <!-- Generator: Sketch 51.1 (57501) - http://www.bohemiancoding.com/sketch -->
    <title>linkedin</title>
    <desc>Created with Sketch.</desc>
    <defs></defs>
    <g id="Page-1" stroke="none" stroke-width="1" fill="none" fill-rule="evenodd">
        <path d="M49.1,44.8 C45.4,44.8 42.2,46.4 40,49 L23,40.2 C23.8,38.6 24.2,36.8 24.2,34.9 C24.2,33 23.7,31.2 23,29.6 L40,20.8 C42.2,23.4 45.5,25 49.1,25 C55.7,25 61.2,19.6 61.2,12.9 C61.2,6.3 55.8,0.8 49.1,0.8 C42.4,0.8 37,6.5 37,13.1 C37,14.7 37.3,16.1 37.8,17.5 L20.5,26.4 C18.3,24.2 15.3,22.9 12,22.9 C5.5,22.9 0,28.4 0,35 C0,41.6 5.4,47.1 12.1,47.1 C15.4,47.1 18.4,45.8 20.6,43.6 L37.9,52.5 C37.4,53.9 37.1,55.3 37.1,56.9 C37.1,63.5 42.5,69 49.2,69 C55.9,69 61.3,63.6 61.3,56.9 C61.3,50.2 55.7,44.8 49.1,44.8 Z M49.1,5.1 C53.5,5.1 57.2,8.7 57.2,13.2 C57.2,17.6 53.6,21.3 49.1,21.3 C44.6,21.3 41,17.6 41,13.1 C41,8.7 44.6,5.1 49.1,5.1 Z M12.1,43.1 C7.7,43.1 4,39.5 4,35 C4,30.6 7.6,26.9 12.1,26.9 C16.5,26.9 20.2,30.5 20.2,35 C20.2,39.4 16.5,43.1 12.1,43.1 Z M49.1,64.9 C44.7,64.9 41,61.3 41,56.8 C41,52.3 44.6,48.7 49.1,48.7 C53.6,48.7 57.2,52.3 57.2,56.8 C57.2,61.3 53.5,64.9 49.1,64.9 Z" id="linkedin" fill="#000000" fill-rule="nonzero"></path>
    </g>
</svg>